<mxfile host="drawio-plugin" modified="2022-03-26T08:46:37.563Z" agent="5.0 (Windows NT 6.2; Win64; x64) AppleWebKit/537.36 (KHTML, like Gecko) Chrome/89.0.4389.114 Safari/537.36" etag="_OrAfyspqrb6mF5lmjM0" version="15.5.4" type="embed"><diagram id="HBayxK6B-MfZ-PqTQPN0" name="第 1 页"><mxGraphModel dx="1820" dy="479" grid="1" gridSize="10" guides="1" tooltips="1" connect="1" arrows="1" fold="1" page="1" pageScale="1" pageWidth="827" pageHeight="1169" math="0" shadow="0"><root><mxCell id="0"/><mxCell id="1" parent="0"/><mxCell id="iBjomOVWXCPGksiLNj9p-61" value="" style="group" parent="1" vertex="1" connectable="0"><mxGeometry x="591.96" y="120" width="318.03999999999996" height="520" as="geometry"/></mxCell><mxCell id="iBjomOVWXCPGksiLNj9p-20" value="" style="rounded=1;whiteSpace=wrap;html=1;labelBackgroundColor=none;labelBorderColor=none;" parent="iBjomOVWXCPGksiLNj9p-61" vertex="1"><mxGeometry width="280" height="520" as="geometry"/></mxCell><mxCell id="iBjomOVWXCPGksiLNj9p-21" value="" style="endArrow=none;html=1;rounded=0;exitX=0.001;exitY=0.106;exitDx=0;exitDy=0;exitPerimeter=0;entryX=1.007;entryY=0.103;entryDx=0;entryDy=0;entryPerimeter=0;" parent="iBjomOVWXCPGksiLNj9p-61" source="iBjomOVWXCPGksiLNj9p-20" target="iBjomOVWXCPGksiLNj9p-20" edge="1"><mxGeometry width="50" height="50" relative="1" as="geometry"><mxPoint x="150" y="250" as="sourcePoint"/><mxPoint x="200" y="200" as="targetPoint"/></mxGeometry></mxCell><mxCell id="iBjomOVWXCPGksiLNj9p-22" value="" style="endArrow=none;html=1;rounded=0;entryX=1.004;entryY=0.903;entryDx=0;entryDy=0;entryPerimeter=0;exitX=-0.007;exitY=0.902;exitDx=0;exitDy=0;exitPerimeter=0;" parent="iBjomOVWXCPGksiLNj9p-61" source="iBjomOVWXCPGksiLNj9p-20" target="iBjomOVWXCPGksiLNj9p-20" edge="1"><mxGeometry width="50" height="50" relative="1" as="geometry"><mxPoint y="470" as="sourcePoint"/><mxPoint x="270" y="466" as="targetPoint"/></mxGeometry></mxCell><mxCell id="iBjomOVWXCPGksiLNj9p-23" value="" style="endArrow=none;html=1;rounded=0;" parent="iBjomOVWXCPGksiLNj9p-61" edge="1"><mxGeometry width="50" height="50" relative="1" as="geometry"><mxPoint x="190" y="520" as="sourcePoint"/><mxPoint x="190" y="470" as="targetPoint"/></mxGeometry></mxCell><mxCell id="iBjomOVWXCPGksiLNj9p-24" value="" style="endArrow=none;html=1;rounded=0;" parent="iBjomOVWXCPGksiLNj9p-61" edge="1"><mxGeometry width="50" height="50" relative="1" as="geometry"><mxPoint x="90" y="520" as="sourcePoint"/><mxPoint x="90" y="470" as="targetPoint"/></mxGeometry></mxCell><mxCell id="iBjomOVWXCPGksiLNj9p-25" value="QR" style="text;html=1;strokeColor=none;fillColor=none;align=center;verticalAlign=middle;whiteSpace=wrap;rounded=0;fontSize=18;fontStyle=1;fontFamily=Helvetica;" parent="iBjomOVWXCPGksiLNj9p-61" vertex="1"><mxGeometry x="20" y="10" width="50" height="40" as="geometry"/></mxCell><mxCell id="iBjomOVWXCPGksiLNj9p-26" value="我的" style="text;html=1;strokeColor=none;fillColor=none;align=center;verticalAlign=middle;whiteSpace=wrap;rounded=0;fontFamily=Helvetica;fontSize=18;" parent="iBjomOVWXCPGksiLNj9p-61" vertex="1"><mxGeometry x="200" y="480" width="60" height="30" as="geometry"/></mxCell><mxCell id="iBjomOVWXCPGksiLNj9p-27" value="联系人" style="text;html=1;strokeColor=none;fillColor=none;align=center;verticalAlign=middle;whiteSpace=wrap;rounded=0;fontFamily=Helvetica;fontSize=18;" parent="iBjomOVWXCPGksiLNj9p-61" vertex="1"><mxGeometry x="110" y="480" width="60" height="30" as="geometry"/></mxCell><mxCell id="iBjomOVWXCPGksiLNj9p-28" value="消息" style="text;html=1;strokeColor=none;fillColor=none;align=center;verticalAlign=middle;whiteSpace=wrap;rounded=0;fontFamily=Helvetica;fontSize=18;" parent="iBjomOVWXCPGksiLNj9p-61" vertex="1"><mxGeometry x="20" y="480" width="60" height="30" as="geometry"/></mxCell><mxCell id="iBjomOVWXCPGksiLNj9p-41" value="" style="html=1;strokeWidth=1;shadow=0;dashed=0;shape=mxgraph.ios7.misc.settings;fillColor=#8F8E94;strokeColor=none;buttonText=;strokeColor2=#222222;fontColor=#222222;fontSize=8;verticalLabelPosition=bottom;verticalAlign=top;align=center;sketch=0;labelBackgroundColor=none;labelBorderColor=none;fontFamily=Helvetica;" parent="iBjomOVWXCPGksiLNj9p-61" vertex="1"><mxGeometry x="232" y="16" width="28" height="28" as="geometry"/></mxCell><mxCell id="iBjomOVWXCPGksiLNj9p-54" value="" style="rounded=1;whiteSpace=wrap;html=1;labelBackgroundColor=none;labelBorderColor=none;fontFamily=Helvetica;fontSize=18;" parent="iBjomOVWXCPGksiLNj9p-61" vertex="1"><mxGeometry x="14" y="310" width="120" height="60" as="geometry"/></mxCell><mxCell id="iBjomOVWXCPGksiLNj9p-55" value="" style="rounded=1;whiteSpace=wrap;html=1;labelBackgroundColor=none;labelBorderColor=none;fontFamily=Helvetica;fontSize=18;" parent="iBjomOVWXCPGksiLNj9p-61" vertex="1"><mxGeometry x="146" y="310" width="120" height="60" as="geometry"/></mxCell><mxCell id="iBjomOVWXCPGksiLNj9p-56" value="" style="rounded=1;whiteSpace=wrap;html=1;labelBackgroundColor=none;labelBorderColor=none;fontFamily=Helvetica;fontSize=18;" parent="iBjomOVWXCPGksiLNj9p-61" vertex="1"><mxGeometry x="14" y="230" width="120" height="60" as="geometry"/></mxCell><mxCell id="iBjomOVWXCPGksiLNj9p-57" value="" style="rounded=1;whiteSpace=wrap;html=1;labelBackgroundColor=none;labelBorderColor=none;fontFamily=Helvetica;fontSize=18;" parent="iBjomOVWXCPGksiLNj9p-61" vertex="1"><mxGeometry x="146" y="230" width="120" height="60" as="geometry"/></mxCell><mxCell id="iBjomOVWXCPGksiLNj9p-58" value="" style="rounded=1;whiteSpace=wrap;html=1;labelBackgroundColor=none;labelBorderColor=none;fontFamily=Helvetica;fontSize=18;" parent="iBjomOVWXCPGksiLNj9p-61" vertex="1"><mxGeometry x="146" y="390" width="120" height="60" as="geometry"/></mxCell><mxCell id="iBjomOVWXCPGksiLNj9p-59" value="" style="rounded=1;whiteSpace=wrap;html=1;labelBackgroundColor=none;labelBorderColor=none;fontFamily=Helvetica;fontSize=18;" parent="iBjomOVWXCPGksiLNj9p-61" vertex="1"><mxGeometry x="14" y="390" width="120" height="60" as="geometry"/></mxCell><mxCell id="iBjomOVWXCPGksiLNj9p-64" value="" style="rounded=1;whiteSpace=wrap;html=1;labelBackgroundColor=none;labelBorderColor=none;fontFamily=Helvetica;fontSize=18;" parent="iBjomOVWXCPGksiLNj9p-61" vertex="1"><mxGeometry x="14" y="60" width="106" height="100" as="geometry"/></mxCell><mxCell id="iBjomOVWXCPGksiLNj9p-65" value="&lt;h1&gt;Heading&lt;/h1&gt;&lt;p&gt;Lorem ipsum dolor sit amet, consectetur adipisicing elit, sed do eiusmod tempor incididunt ut labore et dolore magna aliqua.&lt;/p&gt;" style="text;html=1;strokeColor=none;fillColor=none;spacing=5;spacingTop=-20;whiteSpace=wrap;overflow=hidden;rounded=0;labelBackgroundColor=none;labelBorderColor=none;fontFamily=Helvetica;fontSize=18;" parent="iBjomOVWXCPGksiLNj9p-61" vertex="1"><mxGeometry x="128.04" y="70" width="141.96" height="80" as="geometry"/></mxCell><mxCell id="iBjomOVWXCPGksiLNj9p-62" value="" style="group" parent="1" vertex="1" connectable="0"><mxGeometry x="240" y="120" width="280" height="520" as="geometry"/></mxCell><mxCell id="iBjomOVWXCPGksiLNj9p-5" value="" style="rounded=1;whiteSpace=wrap;html=1;labelBackgroundColor=none;labelBorderColor=none;" parent="iBjomOVWXCPGksiLNj9p-62" vertex="1"><mxGeometry width="280" height="520" as="geometry"/></mxCell><mxCell id="iBjomOVWXCPGksiLNj9p-6" value="" style="endArrow=none;html=1;rounded=0;exitX=0.001;exitY=0.106;exitDx=0;exitDy=0;exitPerimeter=0;entryX=1.007;entryY=0.103;entryDx=0;entryDy=0;entryPerimeter=0;" parent="iBjomOVWXCPGksiLNj9p-62" source="iBjomOVWXCPGksiLNj9p-5" target="iBjomOVWXCPGksiLNj9p-5" edge="1"><mxGeometry width="50" height="50" relative="1" as="geometry"><mxPoint x="150" y="250" as="sourcePoint"/><mxPoint x="200" y="200" as="targetPoint"/></mxGeometry></mxCell><mxCell id="iBjomOVWXCPGksiLNj9p-7" value="" style="endArrow=none;html=1;rounded=0;entryX=1.004;entryY=0.903;entryDx=0;entryDy=0;entryPerimeter=0;exitX=-0.007;exitY=0.902;exitDx=0;exitDy=0;exitPerimeter=0;" parent="iBjomOVWXCPGksiLNj9p-62" source="iBjomOVWXCPGksiLNj9p-5" target="iBjomOVWXCPGksiLNj9p-5" edge="1"><mxGeometry width="50" height="50" relative="1" as="geometry"><mxPoint y="470" as="sourcePoint"/><mxPoint x="270" y="466" as="targetPoint"/></mxGeometry></mxCell><mxCell id="iBjomOVWXCPGksiLNj9p-8" value="" style="endArrow=none;html=1;rounded=0;" parent="iBjomOVWXCPGksiLNj9p-62" edge="1"><mxGeometry width="50" height="50" relative="1" as="geometry"><mxPoint x="190" y="520" as="sourcePoint"/><mxPoint x="190" y="470" as="targetPoint"/></mxGeometry></mxCell><mxCell id="iBjomOVWXCPGksiLNj9p-10" value="" style="endArrow=none;html=1;rounded=0;" parent="iBjomOVWXCPGksiLNj9p-62" edge="1"><mxGeometry width="50" height="50" relative="1" as="geometry"><mxPoint x="90" y="520" as="sourcePoint"/><mxPoint x="90" y="470" as="targetPoint"/></mxGeometry></mxCell><mxCell id="iBjomOVWXCPGksiLNj9p-13" value="联系人" style="text;html=1;strokeColor=none;fillColor=none;align=center;verticalAlign=middle;whiteSpace=wrap;rounded=0;fontSize=18;fontStyle=1;fontFamily=Helvetica;" parent="iBjomOVWXCPGksiLNj9p-62" vertex="1"><mxGeometry x="20" y="10" width="70" height="40" as="geometry"/></mxCell><mxCell id="iBjomOVWXCPGksiLNj9p-14" value="我的" style="text;html=1;strokeColor=none;fillColor=none;align=center;verticalAlign=middle;whiteSpace=wrap;rounded=0;fontFamily=Helvetica;fontSize=18;" parent="iBjomOVWXCPGksiLNj9p-62" vertex="1"><mxGeometry x="200" y="480" width="60" height="30" as="geometry"/></mxCell><mxCell id="iBjomOVWXCPGksiLNj9p-15" value="联系人" style="text;html=1;strokeColor=none;fillColor=none;align=center;verticalAlign=middle;whiteSpace=wrap;rounded=0;fontFamily=Helvetica;fontSize=18;" parent="iBjomOVWXCPGksiLNj9p-62" vertex="1"><mxGeometry x="110" y="480" width="60" height="30" as="geometry"/></mxCell><mxCell id="iBjomOVWXCPGksiLNj9p-17" value="消息" style="text;html=1;strokeColor=none;fillColor=none;align=center;verticalAlign=middle;whiteSpace=wrap;rounded=0;fontFamily=Helvetica;fontSize=18;" parent="iBjomOVWXCPGksiLNj9p-62" vertex="1"><mxGeometry x="20" y="480" width="60" height="30" as="geometry"/></mxCell><mxCell id="iBjomOVWXCPGksiLNj9p-42" value="" style="html=1;verticalLabelPosition=bottom;labelBackgroundColor=#ffffff;verticalAlign=top;shadow=0;dashed=0;strokeWidth=2;shape=mxgraph.ios7.misc.add;fillColor=#00dd00;strokeColor=#ffffff;sketch=0;labelBorderColor=none;fontFamily=Helvetica;fontSize=18;" parent="iBjomOVWXCPGksiLNj9p-62" vertex="1"><mxGeometry x="230" y="15" width="30" height="30" as="geometry"/></mxCell><mxCell id="iBjomOVWXCPGksiLNj9p-78" value="" style="html=1;strokeWidth=1;shadow=0;dashed=0;shape=mxgraph.ios7ui.rrect;rSize=3;strokeColor=#0080F0;gradientColor=none;labelBackgroundColor=none;labelBorderColor=none;fontFamily=Helvetica;fontSize=18;" parent="iBjomOVWXCPGksiLNj9p-62" vertex="1"><mxGeometry y="120" width="280" height="30" as="geometry"/></mxCell><mxCell id="iBjomOVWXCPGksiLNj9p-79" value="好友" style="strokeColor=inherit;fillColor=inherit;gradientColor=inherit;html=1;strokeWidth=1;shadow=0;dashed=0;shape=mxgraph.ios7ui.leftButton;rSize=3;fontSize=8;labelBackgroundColor=none;labelBorderColor=none;fontFamily=Helvetica;" parent="iBjomOVWXCPGksiLNj9p-78" vertex="1"><mxGeometry width="140" height="30" as="geometry"/></mxCell><mxCell id="iBjomOVWXCPGksiLNj9p-82" value="群聊" style="html=1;strokeWidth=1;shadow=0;dashed=0;shape=mxgraph.ios7ui.rrect;rSize=0;strokeColor=#0080F0;fillColor=#0080F0;fontColor=#ffffff;fontSize=8;labelBackgroundColor=none;labelBorderColor=none;fontFamily=Helvetica;" parent="iBjomOVWXCPGksiLNj9p-78" vertex="1"><mxGeometry x="140" width="140" height="30" as="geometry"/></mxCell><mxCell id="iBjomOVWXCPGksiLNj9p-102" value="" style="rounded=1;whiteSpace=wrap;html=1;labelBackgroundColor=none;labelBorderColor=none;fontFamily=Helvetica;fontSize=18;" parent="iBjomOVWXCPGksiLNj9p-62" vertex="1"><mxGeometry y="150" width="280" height="60" as="geometry"/></mxCell><mxCell id="iBjomOVWXCPGksiLNj9p-105" value="" style="rounded=1;whiteSpace=wrap;html=1;labelBackgroundColor=none;labelBorderColor=none;fontFamily=Helvetica;fontSize=18;" parent="iBjomOVWXCPGksiLNj9p-62" vertex="1"><mxGeometry y="330" width="280" height="60" as="geometry"/></mxCell><mxCell id="iBjomOVWXCPGksiLNj9p-106" value="" style="rounded=1;whiteSpace=wrap;html=1;labelBackgroundColor=none;labelBorderColor=none;fontFamily=Helvetica;fontSize=18;" parent="iBjomOVWXCPGksiLNj9p-62" vertex="1"><mxGeometry y="390" width="280" height="60" as="geometry"/></mxCell><mxCell id="iBjomOVWXCPGksiLNj9p-107" value="" style="html=1;verticalLabelPosition=bottom;align=center;labelBackgroundColor=#ffffff;verticalAlign=top;strokeWidth=2;strokeColor=#0080F0;shadow=0;dashed=0;shape=mxgraph.ios7.icons.user;labelBorderColor=none;fontFamily=Helvetica;fontSize=18;" parent="iBjomOVWXCPGksiLNj9p-62" vertex="1"><mxGeometry x="10" y="165" width="30" height="30" as="geometry"/></mxCell><mxCell id="iBjomOVWXCPGksiLNj9p-110" value="" style="html=1;verticalLabelPosition=bottom;align=center;labelBackgroundColor=#ffffff;verticalAlign=top;strokeWidth=2;strokeColor=#0080F0;shadow=0;dashed=0;shape=mxgraph.ios7.icons.user;labelBorderColor=none;fontFamily=Helvetica;fontSize=18;" parent="iBjomOVWXCPGksiLNj9p-62" vertex="1"><mxGeometry x="10" y="345" width="30" height="30" as="geometry"/></mxCell><mxCell id="iBjomOVWXCPGksiLNj9p-111" value="" style="html=1;verticalLabelPosition=bottom;align=center;labelBackgroundColor=#ffffff;verticalAlign=top;strokeWidth=2;strokeColor=#0080F0;shadow=0;dashed=0;shape=mxgraph.ios7.icons.user;labelBorderColor=none;fontFamily=Helvetica;fontSize=18;" parent="iBjomOVWXCPGksiLNj9p-62" vertex="1"><mxGeometry x="10" y="405" width="30" height="30" as="geometry"/></mxCell><mxCell id="iBjomOVWXCPGksiLNj9p-66" value="" style="shape=rect;fillColor=#e0e0e0;strokeColor=none;labelBackgroundColor=none;labelBorderColor=none;fontFamily=Helvetica;fontSize=18;" parent="iBjomOVWXCPGksiLNj9p-62" vertex="1"><mxGeometry y="60" width="280" height="40" as="geometry"/></mxCell><mxCell id="iBjomOVWXCPGksiLNj9p-67" value="" style="html=1;strokeWidth=1;shadow=0;dashed=0;shape=mxgraph.ios7ui.marginRect;rx=3;ry=3;rectMargin=5;strokeColor=none;labelBackgroundColor=none;labelBorderColor=none;fontFamily=Helvetica;fontSize=18;" parent="iBjomOVWXCPGksiLNj9p-66" vertex="1"><mxGeometry width="280" height="40" as="geometry"/></mxCell><mxCell id="iBjomOVWXCPGksiLNj9p-68" value="Search" style="shape=mxgraph.ios7.icons.looking_glass;strokeColor=#e0e0e0;fillColor=none;fontColor=#e0e0e0;labelPosition=right;verticalLabelPosition=middle;align=left;verticalAlign=middle;fontSize=6;fontStyle=0;spacingTop=2;sketch=0;labelBackgroundColor=none;labelBorderColor=none;fontFamily=Helvetica;" parent="iBjomOVWXCPGksiLNj9p-66" vertex="1"><mxGeometry x="0.5" y="0.5" width="6" height="6" relative="1" as="geometry"><mxPoint x="-17" y="-3" as="offset"/></mxGeometry></mxCell><mxCell id="iBjomOVWXCPGksiLNj9p-123" value="" style="group" parent="iBjomOVWXCPGksiLNj9p-62" vertex="1" connectable="0"><mxGeometry y="270" width="280" height="60" as="geometry"/></mxCell><mxCell id="iBjomOVWXCPGksiLNj9p-103" value="" style="rounded=1;whiteSpace=wrap;html=1;labelBackgroundColor=none;labelBorderColor=none;fontFamily=Helvetica;fontSize=18;" parent="iBjomOVWXCPGksiLNj9p-123" vertex="1"><mxGeometry width="280" height="60" as="geometry"/></mxCell><mxCell id="iBjomOVWXCPGksiLNj9p-109" value="" style="html=1;verticalLabelPosition=bottom;align=center;labelBackgroundColor=#ffffff;verticalAlign=top;strokeWidth=2;strokeColor=#0080F0;shadow=0;dashed=0;shape=mxgraph.ios7.icons.user;labelBorderColor=none;fontFamily=Helvetica;fontSize=18;" parent="iBjomOVWXCPGksiLNj9p-123" vertex="1"><mxGeometry x="10" y="15" width="30" height="30" as="geometry"/></mxCell><mxCell id="iBjomOVWXCPGksiLNj9p-126" value="" style="group" parent="iBjomOVWXCPGksiLNj9p-62" vertex="1" connectable="0"><mxGeometry y="210" width="280" height="60" as="geometry"/></mxCell><mxCell id="iBjomOVWXCPGksiLNj9p-104" value="" style="rounded=1;whiteSpace=wrap;html=1;labelBackgroundColor=none;labelBorderColor=none;fontFamily=Helvetica;fontSize=18;" parent="iBjomOVWXCPGksiLNj9p-126" vertex="1"><mxGeometry width="280" height="60" as="geometry"/></mxCell><mxCell id="iBjomOVWXCPGksiLNj9p-108" value="" style="html=1;verticalLabelPosition=bottom;align=center;labelBackgroundColor=#ffffff;verticalAlign=top;strokeWidth=2;strokeColor=#0080F0;shadow=0;dashed=0;shape=mxgraph.ios7.icons.user;labelBorderColor=none;fontFamily=Helvetica;fontSize=18;" parent="iBjomOVWXCPGksiLNj9p-126" vertex="1"><mxGeometry x="10" y="15" width="30" height="30" as="geometry"/></mxCell><mxCell id="iBjomOVWXCPGksiLNj9p-63" value="" style="group" parent="1" vertex="1" connectable="0"><mxGeometry x="-78.04000000000002" y="120" width="280" height="520" as="geometry"/></mxCell><mxCell id="iBjomOVWXCPGksiLNj9p-30" value="" style="rounded=1;whiteSpace=wrap;html=1;labelBackgroundColor=none;labelBorderColor=none;" parent="iBjomOVWXCPGksiLNj9p-63" vertex="1"><mxGeometry width="280" height="520" as="geometry"/></mxCell><mxCell id="iBjomOVWXCPGksiLNj9p-31" value="" style="endArrow=none;html=1;rounded=0;exitX=0.001;exitY=0.106;exitDx=0;exitDy=0;exitPerimeter=0;entryX=1.007;entryY=0.103;entryDx=0;entryDy=0;entryPerimeter=0;" parent="iBjomOVWXCPGksiLNj9p-63" source="iBjomOVWXCPGksiLNj9p-30" target="iBjomOVWXCPGksiLNj9p-30" edge="1"><mxGeometry width="50" height="50" relative="1" as="geometry"><mxPoint x="150" y="250" as="sourcePoint"/><mxPoint x="200" y="200" as="targetPoint"/></mxGeometry></mxCell><mxCell id="iBjomOVWXCPGksiLNj9p-32" value="" style="endArrow=none;html=1;rounded=0;entryX=1.004;entryY=0.903;entryDx=0;entryDy=0;entryPerimeter=0;exitX=-0.007;exitY=0.902;exitDx=0;exitDy=0;exitPerimeter=0;" parent="iBjomOVWXCPGksiLNj9p-63" source="iBjomOVWXCPGksiLNj9p-30" target="iBjomOVWXCPGksiLNj9p-30" edge="1"><mxGeometry width="50" height="50" relative="1" as="geometry"><mxPoint y="470" as="sourcePoint"/><mxPoint x="270" y="466" as="targetPoint"/></mxGeometry></mxCell><mxCell id="iBjomOVWXCPGksiLNj9p-33" value="" style="endArrow=none;html=1;rounded=0;" parent="iBjomOVWXCPGksiLNj9p-63" edge="1"><mxGeometry width="50" height="50" relative="1" as="geometry"><mxPoint x="190" y="520" as="sourcePoint"/><mxPoint x="190" y="470" as="targetPoint"/></mxGeometry></mxCell><mxCell id="iBjomOVWXCPGksiLNj9p-34" value="" style="endArrow=none;html=1;rounded=0;" parent="iBjomOVWXCPGksiLNj9p-63" edge="1"><mxGeometry width="50" height="50" relative="1" as="geometry"><mxPoint x="90" y="520" as="sourcePoint"/><mxPoint x="90" y="470" as="targetPoint"/></mxGeometry></mxCell><mxCell id="iBjomOVWXCPGksiLNj9p-35" value="消息" style="text;html=1;strokeColor=none;fillColor=none;align=center;verticalAlign=middle;whiteSpace=wrap;rounded=0;fontSize=18;fontStyle=1;fontFamily=Helvetica;" parent="iBjomOVWXCPGksiLNj9p-63" vertex="1"><mxGeometry x="20" y="10" width="70" height="40" as="geometry"/></mxCell><mxCell id="iBjomOVWXCPGksiLNj9p-36" value="我的" style="text;html=1;strokeColor=none;fillColor=none;align=center;verticalAlign=middle;whiteSpace=wrap;rounded=0;fontFamily=Helvetica;fontSize=18;" parent="iBjomOVWXCPGksiLNj9p-63" vertex="1"><mxGeometry x="200" y="480" width="60" height="30" as="geometry"/></mxCell><mxCell id="iBjomOVWXCPGksiLNj9p-37" value="联系人" style="text;html=1;strokeColor=none;fillColor=none;align=center;verticalAlign=middle;whiteSpace=wrap;rounded=0;fontFamily=Helvetica;fontSize=18;" parent="iBjomOVWXCPGksiLNj9p-63" vertex="1"><mxGeometry x="110" y="480" width="60" height="30" as="geometry"/></mxCell><mxCell id="iBjomOVWXCPGksiLNj9p-38" value="消息" style="text;html=1;strokeColor=none;fillColor=none;align=center;verticalAlign=middle;whiteSpace=wrap;rounded=0;fontFamily=Helvetica;fontSize=18;" parent="iBjomOVWXCPGksiLNj9p-63" vertex="1"><mxGeometry x="20" y="480" width="60" height="30" as="geometry"/></mxCell><mxCell id="iBjomOVWXCPGksiLNj9p-53" value="" style="html=1;verticalLabelPosition=bottom;labelBackgroundColor=#ffffff;verticalAlign=top;shadow=0;dashed=0;strokeWidth=2;shape=mxgraph.ios7.misc.add;fillColor=#00dd00;strokeColor=#ffffff;sketch=0;labelBorderColor=none;fontFamily=Helvetica;fontSize=18;" parent="iBjomOVWXCPGksiLNj9p-63" vertex="1"><mxGeometry x="230" y="16" width="30" height="30" as="geometry"/></mxCell><mxCell id="iBjomOVWXCPGksiLNj9p-127" value="" style="group" parent="iBjomOVWXCPGksiLNj9p-63" vertex="1" connectable="0"><mxGeometry y="60" width="280" height="60" as="geometry"/></mxCell><mxCell id="iBjomOVWXCPGksiLNj9p-128" value="" style="rounded=1;whiteSpace=wrap;html=1;labelBackgroundColor=none;labelBorderColor=none;fontFamily=Helvetica;fontSize=18;" parent="iBjomOVWXCPGksiLNj9p-127" vertex="1"><mxGeometry width="280" height="60" as="geometry"/></mxCell><mxCell id="iBjomOVWXCPGksiLNj9p-129" value="" style="html=1;verticalLabelPosition=bottom;align=center;labelBackgroundColor=#ffffff;verticalAlign=top;strokeWidth=2;strokeColor=#0080F0;shadow=0;dashed=0;shape=mxgraph.ios7.icons.user;labelBorderColor=none;fontFamily=Helvetica;fontSize=18;" parent="iBjomOVWXCPGksiLNj9p-127" vertex="1"><mxGeometry x="10" y="15" width="30" height="30" as="geometry"/></mxCell><mxCell id="iBjomOVWXCPGksiLNj9p-130" value="" style="group" parent="iBjomOVWXCPGksiLNj9p-63" vertex="1" connectable="0"><mxGeometry y="120" width="280" height="60" as="geometry"/></mxCell><mxCell id="iBjomOVWXCPGksiLNj9p-131" value="" style="rounded=1;whiteSpace=wrap;html=1;labelBackgroundColor=none;labelBorderColor=none;fontFamily=Helvetica;fontSize=18;" parent="iBjomOVWXCPGksiLNj9p-130" vertex="1"><mxGeometry width="280" height="60" as="geometry"/></mxCell><mxCell id="iBjomOVWXCPGksiLNj9p-132" value="" style="html=1;verticalLabelPosition=bottom;align=center;labelBackgroundColor=#ffffff;verticalAlign=top;strokeWidth=2;strokeColor=#0080F0;shadow=0;dashed=0;shape=mxgraph.ios7.icons.user;labelBorderColor=none;fontFamily=Helvetica;fontSize=18;" parent="iBjomOVWXCPGksiLNj9p-130" vertex="1"><mxGeometry x="10" y="15" width="30" height="30" as="geometry"/></mxCell><mxCell id="iBjomOVWXCPGksiLNj9p-133" value="" style="group" parent="iBjomOVWXCPGksiLNj9p-63" vertex="1" connectable="0"><mxGeometry y="180" width="280" height="60" as="geometry"/></mxCell><mxCell id="iBjomOVWXCPGksiLNj9p-134" value="" style="rounded=1;whiteSpace=wrap;html=1;labelBackgroundColor=none;labelBorderColor=none;fontFamily=Helvetica;fontSize=18;" parent="iBjomOVWXCPGksiLNj9p-133" vertex="1"><mxGeometry width="280" height="60" as="geometry"/></mxCell><mxCell id="iBjomOVWXCPGksiLNj9p-135" value="" style="html=1;verticalLabelPosition=bottom;align=center;labelBackgroundColor=#ffffff;verticalAlign=top;strokeWidth=2;strokeColor=#0080F0;shadow=0;dashed=0;shape=mxgraph.ios7.icons.user;labelBorderColor=none;fontFamily=Helvetica;fontSize=18;" parent="iBjomOVWXCPGksiLNj9p-133" vertex="1"><mxGeometry x="10" y="15" width="30" height="30" as="geometry"/></mxCell><mxCell id="iBjomOVWXCPGksiLNj9p-136" value="" style="group" parent="iBjomOVWXCPGksiLNj9p-63" vertex="1" connectable="0"><mxGeometry y="240" width="280" height="60" as="geometry"/></mxCell><mxCell id="iBjomOVWXCPGksiLNj9p-137" value="" style="rounded=1;whiteSpace=wrap;html=1;labelBackgroundColor=none;labelBorderColor=none;fontFamily=Helvetica;fontSize=18;" parent="iBjomOVWXCPGksiLNj9p-136" vertex="1"><mxGeometry width="280" height="60" as="geometry"/></mxCell><mxCell id="iBjomOVWXCPGksiLNj9p-138" value="" style="html=1;verticalLabelPosition=bottom;align=center;labelBackgroundColor=#ffffff;verticalAlign=top;strokeWidth=2;strokeColor=#0080F0;shadow=0;dashed=0;shape=mxgraph.ios7.icons.user;labelBorderColor=none;fontFamily=Helvetica;fontSize=18;" parent="iBjomOVWXCPGksiLNj9p-136" vertex="1"><mxGeometry x="10" y="15" width="30" height="30" as="geometry"/></mxCell><mxCell id="iBjomOVWXCPGksiLNj9p-139" value="" style="group" parent="1" vertex="1" connectable="0"><mxGeometry x="-80.00000000000003" y="720" width="280" height="540" as="geometry"/></mxCell><mxCell id="iBjomOVWXCPGksiLNj9p-140" value="" style="rounded=1;whiteSpace=wrap;html=1;labelBackgroundColor=none;labelBorderColor=none;" parent="iBjomOVWXCPGksiLNj9p-139" vertex="1"><mxGeometry width="280" height="520" as="geometry"/></mxCell><mxCell id="iBjomOVWXCPGksiLNj9p-141" value="" style="endArrow=none;html=1;rounded=0;exitX=0.001;exitY=0.106;exitDx=0;exitDy=0;exitPerimeter=0;entryX=1.007;entryY=0.103;entryDx=0;entryDy=0;entryPerimeter=0;" parent="iBjomOVWXCPGksiLNj9p-139" source="iBjomOVWXCPGksiLNj9p-140" target="iBjomOVWXCPGksiLNj9p-140" edge="1"><mxGeometry width="50" height="50" relative="1" as="geometry"><mxPoint x="150" y="250" as="sourcePoint"/><mxPoint x="200" y="200" as="targetPoint"/></mxGeometry></mxCell><mxCell id="iBjomOVWXCPGksiLNj9p-142" value="" style="endArrow=none;html=1;rounded=0;entryX=1.004;entryY=0.903;entryDx=0;entryDy=0;entryPerimeter=0;exitX=-0.007;exitY=0.902;exitDx=0;exitDy=0;exitPerimeter=0;" parent="iBjomOVWXCPGksiLNj9p-139" source="iBjomOVWXCPGksiLNj9p-140" target="iBjomOVWXCPGksiLNj9p-140" edge="1"><mxGeometry width="50" height="50" relative="1" as="geometry"><mxPoint y="470" as="sourcePoint"/><mxPoint x="270" y="466" as="targetPoint"/></mxGeometry></mxCell><mxCell id="iBjomOVWXCPGksiLNj9p-145" value="消息" style="text;html=1;strokeColor=none;fillColor=none;align=center;verticalAlign=middle;whiteSpace=wrap;rounded=0;fontSize=18;fontStyle=1;fontFamily=Helvetica;" parent="iBjomOVWXCPGksiLNj9p-139" vertex="1"><mxGeometry x="100" y="11" width="70" height="40" as="geometry"/></mxCell><mxCell id="iBjomOVWXCPGksiLNj9p-162" value="" style="html=1;verticalLabelPosition=bottom;align=center;labelBackgroundColor=#ffffff;verticalAlign=top;strokeWidth=2;strokeColor=#000103;shadow=0;dashed=0;shape=mxgraph.ios7.icons.back;labelBorderColor=none;fontFamily=Helvetica;fontSize=18;fontColor=#FFFFFF;" parent="iBjomOVWXCPGksiLNj9p-139" vertex="1"><mxGeometry x="22" y="19" width="30" height="21" as="geometry"/></mxCell><mxCell id="iBjomOVWXCPGksiLNj9p-165" value="" style="html=1;verticalLabelPosition=bottom;align=center;labelBackgroundColor=#ffffff;verticalAlign=top;strokeWidth=2;strokeColor=#000000;shadow=0;dashed=0;shape=mxgraph.ios7.icons.add;labelBorderColor=none;fontFamily=Helvetica;fontSize=18;fontColor=#FFFFFF;" parent="iBjomOVWXCPGksiLNj9p-139" vertex="1"><mxGeometry x="232.00000000000003" y="480" width="30" height="30" as="geometry"/></mxCell><mxCell id="iBjomOVWXCPGksiLNj9p-171" value="" style="rounded=1;whiteSpace=wrap;html=1;labelBackgroundColor=none;labelBorderColor=none;fontFamily=Helvetica;fontSize=18;fontColor=#FFFFFF;strokeColor=#000103;" parent="iBjomOVWXCPGksiLNj9p-139" vertex="1"><mxGeometry x="20" y="480" width="200" height="30" as="geometry"/></mxCell><mxCell id="iBjomOVWXCPGksiLNj9p-195" value="" style="html=1;verticalLabelPosition=bottom;align=center;labelBackgroundColor=#ffffff;verticalAlign=top;strokeWidth=2;strokeColor=#808080;shadow=0;dashed=0;shape=mxgraph.ios7.icons.page_navigation;pointerEvents=1;fontSize=18;fontColor=#FFFFFF;" parent="iBjomOVWXCPGksiLNj9p-139" vertex="1"><mxGeometry x="232.00000000000003" y="28.600000000000023" width="30" height="4.8" as="geometry"/></mxCell><mxCell id="iBjomOVWXCPGksiLNj9p-181" value="" style="group" parent="1" vertex="1" connectable="0"><mxGeometry x="274" y="720" width="280" height="540" as="geometry"/></mxCell><mxCell id="iBjomOVWXCPGksiLNj9p-182" value="" style="rounded=1;whiteSpace=wrap;html=1;labelBackgroundColor=none;labelBorderColor=none;" parent="iBjomOVWXCPGksiLNj9p-181" vertex="1"><mxGeometry width="280" height="520" as="geometry"/></mxCell><mxCell id="iBjomOVWXCPGksiLNj9p-183" value="" style="endArrow=none;html=1;rounded=0;exitX=0.001;exitY=0.106;exitDx=0;exitDy=0;exitPerimeter=0;entryX=1.007;entryY=0.103;entryDx=0;entryDy=0;entryPerimeter=0;" parent="iBjomOVWXCPGksiLNj9p-181" source="iBjomOVWXCPGksiLNj9p-182" target="iBjomOVWXCPGksiLNj9p-182" edge="1"><mxGeometry width="50" height="50" relative="1" as="geometry"><mxPoint x="150" y="250" as="sourcePoint"/><mxPoint x="200" y="200" as="targetPoint"/></mxGeometry></mxCell><mxCell id="iBjomOVWXCPGksiLNj9p-184" value="" style="endArrow=none;html=1;rounded=0;" parent="iBjomOVWXCPGksiLNj9p-181" edge="1"><mxGeometry width="50" height="50" relative="1" as="geometry"><mxPoint x="-2" y="370" as="sourcePoint"/><mxPoint x="281" y="370" as="targetPoint"/><Array as="points"><mxPoint x="-2" y="370"/><mxPoint x="281" y="370"/></Array></mxGeometry></mxCell><mxCell id="iBjomOVWXCPGksiLNj9p-185" value="消息" style="text;html=1;strokeColor=none;fillColor=none;align=center;verticalAlign=middle;whiteSpace=wrap;rounded=0;fontSize=18;fontStyle=1;fontFamily=Helvetica;" parent="iBjomOVWXCPGksiLNj9p-181" vertex="1"><mxGeometry x="100" y="11" width="70" height="40" as="geometry"/></mxCell><mxCell id="iBjomOVWXCPGksiLNj9p-186" value="" style="html=1;verticalLabelPosition=bottom;align=center;labelBackgroundColor=#ffffff;verticalAlign=top;strokeWidth=2;strokeColor=#000103;shadow=0;dashed=0;shape=mxgraph.ios7.icons.back;labelBorderColor=none;fontFamily=Helvetica;fontSize=18;fontColor=#FFFFFF;" parent="iBjomOVWXCPGksiLNj9p-181" vertex="1"><mxGeometry x="22" y="19" width="30" height="21" as="geometry"/></mxCell><mxCell id="iBjomOVWXCPGksiLNj9p-187" value="" style="html=1;verticalLabelPosition=bottom;align=center;labelBackgroundColor=#ffffff;verticalAlign=top;strokeWidth=2;strokeColor=#000000;shadow=0;dashed=0;shape=mxgraph.ios7.icons.add;labelBorderColor=none;fontFamily=Helvetica;fontSize=18;fontColor=#FFFFFF;" parent="iBjomOVWXCPGksiLNj9p-181" vertex="1"><mxGeometry x="246.00000000000003" y="380" width="30" height="30" as="geometry"/></mxCell><mxCell id="iBjomOVWXCPGksiLNj9p-188" value="" style="rounded=1;whiteSpace=wrap;html=1;labelBackgroundColor=none;labelBorderColor=none;fontFamily=Helvetica;fontSize=18;fontColor=#FFFFFF;strokeColor=#000103;" parent="iBjomOVWXCPGksiLNj9p-181" vertex="1"><mxGeometry x="10" y="380" width="230" height="30" as="geometry"/></mxCell><mxCell id="iBjomOVWXCPGksiLNj9p-189" value="" style="html=1;verticalLabelPosition=bottom;align=center;labelBackgroundColor=#ffffff;verticalAlign=top;strokeWidth=2;strokeColor=#808080;shadow=0;dashed=0;shape=mxgraph.ios7.icons.folder;labelBorderColor=none;fontFamily=Helvetica;fontSize=18;fontColor=#FFFFFF;" parent="iBjomOVWXCPGksiLNj9p-181" vertex="1"><mxGeometry x="120.5" y="447.42" width="39" height="30" as="geometry"/></mxCell><mxCell id="iBjomOVWXCPGksiLNj9p-191" value="" style="html=1;verticalLabelPosition=bottom;align=center;labelBackgroundColor=#ffffff;verticalAlign=top;strokeWidth=2;strokeColor=#808080;shadow=0;dashed=0;shape=mxgraph.ios7.icons.camera;labelBorderColor=none;fontFamily=Helvetica;fontSize=18;fontColor=#FFFFFF;" parent="iBjomOVWXCPGksiLNj9p-181" vertex="1"><mxGeometry x="22" y="449" width="49" height="28.42" as="geometry"/></mxCell><mxCell id="iBjomOVWXCPGksiLNj9p-194" value="" style="html=1;verticalLabelPosition=bottom;align=center;labelBackgroundColor=#ffffff;verticalAlign=top;strokeWidth=2;strokeColor=#808080;shadow=0;dashed=0;shape=mxgraph.ios7.icons.gauge;fontSize=18;fontColor=#FFFFFF;" parent="iBjomOVWXCPGksiLNj9p-181" vertex="1"><mxGeometry x="216" y="445.92000000000013" width="32.4" height="31.5" as="geometry"/></mxCell><mxCell id="iBjomOVWXCPGksiLNj9p-196" value="" style="html=1;verticalLabelPosition=bottom;align=center;labelBackgroundColor=#ffffff;verticalAlign=top;strokeWidth=2;strokeColor=#808080;shadow=0;dashed=0;shape=mxgraph.ios7.icons.page_navigation;pointerEvents=1;fontSize=18;fontColor=#FFFFFF;" parent="iBjomOVWXCPGksiLNj9p-181" vertex="1"><mxGeometry x="232" y="28.600000000000023" width="30" height="4.8" as="geometry"/></mxCell></root></mxGraphModel></diagram></mxfile>